<svg width="20" height="20" viewBox="0 0 20 20" fill="none" xmlns="http://www.w3.org/2000/svg">
    <path d="M5 6.66675C5 5.34067 5.52678 4.0689 6.46447 3.13121C7.40215 2.19353 8.67392 1.66675 10 1.66675C11.3261 1.66675 12.5979 2.19353 13.5355 3.13121C14.4732 4.0689 15 5.34067 15 6.66675C15 12.5001 17.5 14.1667 17.5 14.1667H2.5C2.5 14.1667 5 12.5001 5 6.66675Z" stroke="white" stroke-width="2" stroke-linecap="round" stroke-linejoin="round"/>
    <path d="M8.58301 17.5C8.72249 17.7537 8.92755 17.9653 9.17675 18.1127C9.42595 18.26 9.71016 18.3378 9.99967 18.3378C10.2892 18.3378 10.5734 18.26 10.8226 18.1127C11.0718 17.9653 11.2769 17.7537 11.4163 17.5" stroke="white" stroke-width="2" stroke-linecap="round" stroke-linejoin="round"/>
</svg>