<svg width="17" height="16" viewBox="0 0 17 16" fill="none" xmlns="http://www.w3.org/2000/svg">
    <g clip-path="url(#clip0_208_61)">
        <path d="M8.5 0C12.9173 0 16.5 3.58272 16.5 8C16.5 12.4173 12.9173 16 8.5 16C4.08272 16 0.5 12.4173 0.5 8C0.5 3.58272 4.08272 0 8.5 0Z" fill="white"/>
        <path d="M8.50255 10.8128C6.94863 10.8128 5.69039 9.55388 5.69039 7.99996C5.69039 6.44604 6.94927 5.1878 8.50255 5.1878C9.89455 5.1878 11.0504 6.20284 11.2731 7.53148H14.1064C13.867 4.6438 11.451 2.375 8.50255 2.375C5.39727 2.375 2.87759 4.89468 2.87759 7.99996C2.87759 11.1052 5.39727 13.6249 8.50255 13.6249C11.451 13.6249 13.8677 11.3561 14.1064 8.46844H11.2706C11.0478 9.79772 9.89455 10.8128 8.50255 10.8128Z" fill="#0052FF"/>
    </g>
    <defs>
        <clipPath id="clip0_208_61">
            <rect width="16" height="16" fill="white" transform="translate(0.5)"/>
        </clipPath>
    </defs>
</svg>