<svg width="19" height="16" viewBox="0 0 19 16" fill="none" xmlns="http://www.w3.org/2000/svg">
    <g clip-path="url(#clip0_208_6)">
        <path d="M17.6377 0L10.3146 5.4186L11.6764 2.22527L17.6377 0Z" fill="#E17726"/>
        <path d="M1.37941 0.00634766L7.32481 2.22561L8.61788 5.46081L1.37941 0.00634766ZM14.6907 11.5238L17.9274 11.5854L16.7962 15.4282L12.8467 14.3408L14.6907 11.5238ZM4.30928 11.5238L6.14641 14.3408L2.20354 15.4283L1.07921 11.5854L4.30928 11.5238Z" fill="#E27625"/>
        <path d="M8.44207 4.63678L8.57434 8.90898L4.61627 8.72891L5.74214 7.03038L5.75641 7.01404L8.44207 4.63678ZM10.5169 4.58911L13.2436 7.01418L13.2577 7.03044L14.3836 8.72898L10.4264 8.90898L10.5169 4.58911ZM6.26234 11.5362L8.42354 13.2202L5.91301 14.4322L6.26234 11.5362ZM12.7381 11.536L13.0801 14.4323L10.5766 13.22L12.7381 11.536Z" fill="#E27625"/>
        <path d="M10.6319 13.0615L13.1723 14.2917L10.8092 15.4147L10.8337 14.6725L10.6319 13.0615ZM8.36741 13.0621L8.17347 14.6603L8.18941 15.4139L5.82074 14.2917L8.36741 13.0621Z" fill="#D5BFB2"/>
        <path d="M7.63381 9.46655L8.29768 10.8618L6.03748 10.1996L7.63381 9.46655ZM11.3661 9.46669L12.97 10.1996L10.7024 10.8616L11.3661 9.46669Z" fill="#233447"/>
        <path d="M6.43508 11.5219L6.06974 14.5246L4.11154 11.5876L6.43508 11.5219ZM12.5651 11.522L14.8887 11.5876L12.9231 14.5247L12.5651 11.522ZM14.4408 8.55908L12.7498 10.2825L11.446 9.68668L10.8218 10.9989L10.4126 8.74235L14.4408 8.55908ZM4.55834 8.55908L8.58734 8.74235L8.17808 10.9989L7.55374 9.68688L6.25688 10.2825L4.55834 8.55908Z" fill="#CC6228"/>
        <path d="M4.4444 8.20549L6.3576 10.1469L6.42386 12.0635L4.4444 8.20549ZM14.5575 8.20203L12.5745 12.0669L12.6491 10.1469L14.5575 8.20203ZM8.4938 8.32376L8.5708 8.80843L8.76106 10.0158L8.63873 13.7242L8.0604 10.7452L8.0602 10.7144L8.4938 8.32376ZM10.5052 8.31703L10.9399 10.7144L10.9397 10.7452L10.3599 13.7316L10.337 12.9846L10.2465 9.99383L10.5052 8.31703Z" fill="#E27525"/>
        <path d="M12.8192 10.0697L12.7545 11.7349L10.7362 13.3074L10.3282 13.0191L10.7855 10.6634L12.8192 10.0697ZM6.18781 10.0697L8.21441 10.6634L8.67174 13.0191L8.26374 13.3074L6.24541 11.7348L6.18781 10.0697Z" fill="#F5841F"/>
        <path d="M5.43454 13.9238L8.01667 15.1473L8.00574 14.6248L8.22181 14.4352H10.7774L11.0013 14.6242L10.9847 15.1462L13.5505 13.9269L12.302 14.9586L10.7923 15.9955H8.20107L6.69241 14.9544L5.43454 13.9238Z" fill="#C0AC9D"/>
        <path d="M10.4469 12.8986L10.812 13.1565L11.0259 14.8634L10.7163 14.602H8.2846L7.98087 14.8687L8.1878 13.1566L8.553 12.8986H10.4469Z" fill="#161616"/>
        <path d="M17.1543 0.150024L18.0333 2.78716L17.4843 5.45362L17.8753 5.75516L17.3463 6.15876L17.7439 6.46582L17.2174 6.94522L17.5406 7.17929L16.6829 8.18102L13.1649 7.15669L13.1344 7.14036L10.5993 5.00182L17.1543 0.150024ZM1.84574 0.150024L8.40081 5.00182L5.86561 7.14036L5.83514 7.15669L2.31714 8.18102L1.45941 7.17929L1.78234 6.94542L1.25621 6.46582L1.65301 6.15909L1.11607 5.75436L1.52174 5.45262L0.966675 2.78729L1.84574 0.150024Z" fill="#763E1A"/>
        <path d="M12.9928 6.93272L16.7203 8.01799L17.9313 11.7504H14.7364L12.5351 11.7781L14.136 8.65759L12.9928 6.93272ZM6.00721 6.93272L4.86381 8.65759L6.46494 11.7781L4.26461 11.7504H1.07541L2.27961 8.01805L6.00721 6.93272ZM11.8589 2.20752L10.8163 5.02345L10.5951 8.82745L10.5104 10.0198L10.5037 13.0657H8.49628L8.48974 10.0255L8.40481 8.82645L8.18348 5.02345L7.14101 2.20752H11.8589Z" fill="#F5841F"/>
    </g>
    <defs>
        <clipPath id="clip0_208_6">
            <rect width="17.12" height="16" fill="white" transform="translate(0.940002)"/>
        </clipPath>
    </defs>
</svg>