<svg width="18" height="18" viewBox="0 0 18 18" fill="none" xmlns="http://www.w3.org/2000/svg">
    <path d="M9 17C13.4183 17 17 13.4183 17 9C17 4.58172 13.4183 1 9 1C4.58172 1 1 4.58172 1 9C1 13.4183 4.58172 17 9 17Z" fill="#3396FF" stroke="#66B1FF"/>
    <path d="M5.893 6.95337C7.60893 5.28003 10.3911 5.28003 12.107 6.95337L12.3135 7.15476C12.3993 7.2384 12.3993 7.37406 12.3135 7.45771L11.6071 8.14664C11.5642 8.18846 11.4946 8.18846 11.4517 8.14664L11.1675 7.8695C9.97043 6.70214 8.02958 6.70214 6.83247 7.8695L6.52811 8.16628C6.4852 8.20811 6.41567 8.20811 6.37276 8.16628L5.66631 7.47736C5.5805 7.39371 5.5805 7.25805 5.66631 7.1744L5.893 6.95337ZM13.5681 8.37809L14.1968 8.99123C14.2826 9.07488 14.2826 9.21054 14.1968 9.29418L11.3617 12.0589C11.2759 12.1425 11.1368 12.1425 11.051 12.0589L9.03886 10.0967C9.01741 10.0758 8.98264 10.0758 8.96119 10.0967L6.94904 12.0589C6.86326 12.1425 6.72416 12.1425 6.63834 12.0589L3.80319 9.29414C3.7174 9.21049 3.7174 9.07484 3.80319 8.99119L4.43195 8.37805C4.51774 8.2944 4.65685 8.2944 4.74265 8.37805L6.75483 10.3402C6.77629 10.3612 6.81105 10.3612 6.83251 10.3402L8.84462 8.37805C8.93039 8.29436 9.0695 8.29436 9.15531 8.37805L11.1675 10.3402C11.189 10.3612 11.2237 10.3612 11.2452 10.3402L13.2574 8.37809C13.3431 8.2944 13.4823 8.2944 13.5681 8.37809Z" fill="white"/>
</svg>