<svg width="170" height="30" viewBox="0 0 170 30" fill="none" xmlns="http://www.w3.org/2000/svg">
    <path d="M29.9993 14.997C29.9998 17.9639 29.1206 20.8643 27.4728 23.3314C25.825 25.7985 23.4826 27.7216 20.7418 28.8573C18.001 29.9931 14.985 30.2906 12.0752 29.7121C9.16534 29.1337 6.49238 27.7053 4.39435 25.6077C2.29632 23.51 0.867444 20.8372 0.288439 17.9274C-0.290567 15.0177 0.00630142 12.0015 1.1415 9.26044C2.2767 6.51937 4.19924 4.17652 6.66598 2.52816C9.13272 0.87981 12.0329 5.86312e-08 14.9996 0C18.9773 -7.86085e-08 22.792 1.57994 25.6049 4.39234C28.4178 7.20474 29.9985 11.0193 29.9993 14.997ZM21.5541 6.50994H18.0503V10.0139H21.5541V6.50994ZM19.8007 15.4145H9.86755C9.63821 15.4145 9.41112 15.4597 9.19928 15.5476C8.98743 15.6354 8.79499 15.7642 8.63296 15.9265C8.47093 16.0888 8.34249 16.2815 8.255 16.4935C8.16751 16.7055 8.12267 16.9327 8.12306 17.162C8.12306 17.6247 8.30686 18.0684 8.63401 18.3956C8.96117 18.7228 9.40489 18.9066 9.86755 18.9066H19.8007V15.4145Z" fill="white"/>
    <path d="M35.3967 7.5775L38.9334 17.1888C39.1859 17.8568 39.4602 18.5884 39.7564 19.3837C40.0526 20.1789 40.327 20.9214 40.5795 21.6113H40.6361L42.2554 17.1829L45.8338 7.57153H48.4252L41.7514 24.5845H39.3479L32.7874 7.58644L35.3967 7.5775Z" fill="white"/>
    <path d="M42.0496 25.0317H39.0318L32.1284 7.13907H35.7069L39.3658 17.0337C39.6163 17.6997 39.8906 18.4333 40.1889 19.2345L40.6183 20.3916L41.8469 17.0337L45.5476 7.13013H49.1051L42.0496 25.0317ZM39.6491 24.1371H41.4383L47.7781 8.03371H46.1559L42.6729 17.3468L40.9463 22.0675H40.2604L40.1531 21.7693L39.33 19.5446C39.0318 18.7494 38.7575 18.0168 38.507 17.3468L35.0776 8.02476H33.4316L39.6491 24.1371Z" fill="white"/>
    <path d="M52.946 11.8987H50.5693V24.5846H52.946V11.8987Z" fill="white"/>
    <path d="M53.3814 25.0317H50.1011V11.4512H53.3814V25.0317ZM50.9957 24.1371H52.4868V12.3458H50.9957V24.1371Z" fill="white"/>
    <path d="M59.2053 24.5845H56.8197V11.8987H58.6805L59.0473 13.6521C59.6224 13.0629 60.2928 12.5749 61.0303 12.2088C61.7773 11.8632 62.5931 11.6919 63.416 11.7078C64.7141 11.7078 65.731 12.0726 66.4666 12.8022C67.2022 13.5319 67.5709 14.5438 67.5729 15.838V24.5845H65.1873V16.1899C65.2263 15.5208 65.0136 14.8612 64.5909 14.341C64.1853 13.8818 63.571 13.6521 62.742 13.6521C61.4836 13.6521 60.3047 14.2187 59.2053 15.3519V24.5845Z" fill="white"/>
    <path d="M68.0202 25.032H64.7399V16.19C64.774 15.6286 64.5975 15.0746 64.2449 14.6363C63.9258 14.2755 63.4308 14.0995 62.73 14.0995C61.6326 14.0995 60.6217 14.5707 59.6406 15.5369V25.032H56.3604V11.4514H59.0442L59.3126 12.7874C59.7779 12.3984 60.2898 12.0689 60.8364 11.8063C61.6452 11.4323 62.528 11.2458 63.4189 11.2606C64.8324 11.2606 65.9626 11.6721 66.7856 12.4832C67.6086 13.2944 68.0231 14.4246 68.0231 15.8381L68.0202 25.032ZM65.6345 24.1373H67.1255V15.8381C67.1255 14.6453 66.8065 13.7685 66.1534 13.1214C65.5003 12.4743 64.5998 12.1552 63.4159 12.1552C62.6594 12.1416 61.9095 12.2975 61.2211 12.6115C60.5291 12.9561 59.9 13.4148 59.3603 13.9683L58.7639 14.5648L58.3196 12.352H57.2729V24.1373H58.7639V15.1731L58.8892 15.0419C60.082 13.8222 61.3672 13.2049 62.7479 13.2049C63.7052 13.2049 64.4417 13.4882 64.9338 14.0459C65.432 14.6461 65.6883 15.4107 65.6524 16.19L65.6345 24.1373Z" fill="white"/>
    <path d="M79.7485 11.8987H82.1341V24.5846H80.2733L79.9483 22.9921H79.841C79.3467 23.5328 78.7562 23.9767 78.0995 24.3013C77.3477 24.6666 76.5196 24.8476 75.684 24.8291C74.507 24.884 73.3544 24.4823 72.4664 23.7078C71.6493 22.9623 71.2398 21.8331 71.2378 20.3202V11.8987H73.6234V20.0219C73.6126 20.4893 73.6812 20.9552 73.8262 21.3997C73.9365 21.7347 74.121 22.0405 74.3659 22.2943C74.5832 22.5207 74.8524 22.6907 75.1502 22.7893C75.4734 22.891 75.8105 22.9413 76.1492 22.9384C76.8254 22.949 77.4935 22.7912 78.0935 22.4792C78.7057 22.1464 79.2613 21.7186 79.7396 21.2118L79.7485 11.8987Z" fill="white"/>
    <path d="M75.6721 25.2762C74.3888 25.3269 73.1349 24.884 72.1682 24.0386C71.2557 23.2066 70.7935 21.9512 70.7935 20.32V11.4512H74.0737V20.0217C74.0634 20.4382 74.1228 20.8535 74.2496 21.2504C74.3395 21.5246 74.4881 21.776 74.685 21.987C74.8556 22.1603 75.0652 22.2901 75.2963 22.3657C75.5754 22.4519 75.8661 22.4942 76.1581 22.4909C76.7602 22.5 77.3552 22.3607 77.8907 22.0854C78.4093 21.8021 78.8844 21.4456 79.3012 21.0267V11.4512H82.5814V25.0317H79.8976L79.6471 23.8001C79.2336 24.1518 78.779 24.4522 78.2933 24.6947C77.4777 25.0928 76.5795 25.2921 75.6721 25.2762ZM71.691 12.3458V20.32C71.691 21.6947 72.0549 22.7235 72.7735 23.3766C73.4922 24.0297 74.4614 24.3816 75.6721 24.3816C76.4372 24.3987 77.1955 24.2342 77.8847 23.9015C78.4927 23.6037 79.039 23.194 79.495 22.6937L79.6292 22.5446H80.3032L80.6252 24.1371H81.6749V12.3458H80.1839V21.3905L80.0586 21.5217C79.546 22.0616 78.9524 22.5184 78.2992 22.8756C77.6343 23.2197 76.8949 23.3948 76.1462 23.3856C75.7609 23.3891 75.3775 23.3317 75.0101 23.2156C74.6418 23.098 74.3074 22.8934 74.0349 22.6192C73.7426 22.3164 73.5224 21.9514 73.3908 21.5516C73.228 21.0583 73.1504 20.541 73.1612 20.0217V12.3458H71.691Z" fill="white"/>
    <path d="M96.1049 7.57764V9.62933H88.6021V15.1373H95.5115V17.1621H88.6021V24.5846H86.1181V7.58658L96.1049 7.57764Z" fill="white"/>
    <path d="M89.0495 25.0318H85.6708V7.13916H96.5523V10.0855H89.0495V14.6899H95.9589V17.6093H89.0495V25.0318ZM86.5654 24.1372H88.1549V16.7147H95.0642V15.5845H88.1549V9.1819H95.6577V8.02485H86.5654V24.1372Z" fill="white"/>
    <path d="M100.047 8.63016C99.8505 8.63444 99.655 8.59976 99.4717 8.5281C99.2885 8.45645 99.1213 8.34924 98.9797 8.21266C98.8359 8.08135 98.7219 7.92082 98.6453 7.74183C98.5686 7.56285 98.5312 7.36954 98.5353 7.17489C98.5321 6.97816 98.5699 6.78292 98.6464 6.60165C98.7229 6.42038 98.8364 6.25708 98.9797 6.12221C99.1201 5.98294 99.2867 5.87299 99.47 5.79875C99.6533 5.72452 99.8495 5.68748 100.047 5.6898C100.439 5.69066 100.815 5.84602 101.094 6.12221C101.24 6.2552 101.357 6.41787 101.435 6.59938C101.514 6.78089 101.553 6.97708 101.55 7.17489C101.554 7.37062 101.515 7.56486 101.436 7.74407C101.358 7.92329 101.241 8.0832 101.094 8.21266C100.812 8.48125 100.437 8.63077 100.047 8.63016ZM98.8544 24.5844V11.8985H101.24V24.5844H98.8544Z" fill="white"/>
    <path d="M101.69 25.0318H98.4101V11.4513H101.69V25.0318ZM99.3047 24.1371H100.796V12.3459H99.3047V24.1371ZM100.047 9.0775C99.5359 9.08508 99.0421 8.8912 98.6725 8.53774C98.4811 8.36665 98.3289 8.1564 98.2259 7.92125C98.123 7.6861 98.0719 7.43157 98.0761 7.17492C98.0716 6.91786 98.121 6.66271 98.2212 6.42592C98.3213 6.18914 98.47 5.97597 98.6576 5.80017C99.0238 5.44438 99.5143 5.24536 100.025 5.24536C100.535 5.24536 101.026 5.44438 101.392 5.80017C101.583 5.97508 101.736 6.18858 101.838 6.42657C101.941 6.66457 101.992 6.92166 101.989 7.18088C101.994 7.43853 101.943 7.69422 101.84 7.93046C101.737 8.1667 101.584 8.37792 101.392 8.54967C101.027 8.89026 100.546 9.07902 100.047 9.0775ZM100.047 6.13714C99.9074 6.13374 99.7684 6.15838 99.6383 6.2096C99.5082 6.26082 99.3897 6.33758 99.2898 6.43536C99.1914 6.52986 99.114 6.64402 99.0626 6.77041C99.0112 6.89681 98.987 7.0326 98.9916 7.16895C98.9865 7.30228 99.0106 7.43511 99.0621 7.5582C99.1136 7.68128 99.1913 7.79167 99.2898 7.88168C99.3904 7.9794 99.5094 8.05611 99.64 8.10731C99.7705 8.15851 99.91 8.18319 100.05 8.17989C100.33 8.1819 100.599 8.07494 100.802 7.88168C100.903 7.79478 100.984 7.68618 101.038 7.56386C101.093 7.44155 101.119 7.30864 101.115 7.17492C101.118 7.03769 101.091 6.90142 101.036 6.7757C100.981 6.64999 100.899 6.53789 100.796 6.44728C100.597 6.24874 100.328 6.13718 100.047 6.13714Z" fill="white"/>
    <path d="M107.496 24.5845H105.111V11.8987H106.974L107.323 13.6521C107.9 13.0635 108.571 12.5756 109.309 12.2088C110.056 11.8632 110.872 11.6919 111.695 11.7078C112.989 11.7078 114.006 12.0726 114.746 12.8022C115.485 13.5319 115.854 14.5438 115.852 15.838V24.5845H113.466V16.1899C113.503 15.5211 113.291 14.8623 112.87 14.341C112.472 13.8818 111.856 13.6521 111.021 13.6521C109.761 13.6521 108.582 14.2187 107.484 15.3519L107.496 24.5845Z" fill="white"/>
    <path d="M116.302 25.0317H113.022V16.1898C113.057 15.6282 112.881 15.0737 112.527 14.6361C112.208 14.2753 111.713 14.0993 111.015 14.0993C109.918 14.0993 108.904 14.5705 107.926 15.5367V25.0317H104.672V11.4512H107.356L107.622 12.7872C108.082 12.3994 108.589 12.0699 109.13 11.8061C109.939 11.4318 110.822 11.2453 111.713 11.2604C113.123 11.2604 114.257 11.6719 115.077 12.483C115.897 13.2942 116.302 14.4244 116.302 15.8379V25.0317ZM113.917 24.1371H115.408V15.8379C115.408 14.6451 115.089 13.7683 114.435 13.1212C113.782 12.4741 112.882 12.155 111.698 12.155C110.941 12.1406 110.191 12.2965 109.503 12.6113C108.815 12.957 108.19 13.4157 107.654 13.9681L107.058 14.5645L106.617 12.3518H105.567V24.1371H107.058V15.1729L107.183 15.0417C108.376 13.822 109.661 13.2047 111.042 13.2047C111.999 13.2047 112.733 13.488 113.225 14.0457C113.723 14.6459 113.979 15.4105 113.943 16.1898L113.917 24.1371Z" fill="white"/>
    <path d="M119.535 13.0319C119.968 12.8172 120.374 12.6184 120.751 12.4355C121.118 12.2684 121.497 12.1289 121.885 12.018C122.265 11.9097 122.653 11.829 123.045 11.7764C123.474 11.7181 123.906 11.6902 124.339 11.6929C124.99 11.6872 125.639 11.7644 126.271 11.9225C126.826 12.0626 127.343 12.3256 127.783 12.6919C128.222 13.0776 128.56 13.565 128.767 14.1114C129.025 14.8199 129.146 15.5706 129.125 16.3241V24.5846H127.154L126.856 23.183H126.802C126.292 23.7445 125.658 24.1795 124.95 24.4534C124.241 24.7122 123.49 24.8405 122.735 24.8321C122.171 24.8341 121.61 24.7466 121.074 24.5726C120.583 24.4205 120.124 24.1778 119.723 23.8569C119.348 23.5457 119.049 23.1544 118.846 22.7118C118.638 22.2353 118.537 21.7195 118.548 21.1999C118.52 20.599 118.652 20.0016 118.929 19.468C119.207 18.9344 119.621 18.4835 120.128 18.1611C121.18 17.4693 122.572 17.1233 124.303 17.1233H126.733V16.0289C126.733 15.1104 126.498 14.4842 126.033 14.1532C125.47 13.7929 124.809 13.6177 124.142 13.6522C123.599 13.6632 123.059 13.7403 122.535 13.8818C121.812 14.084 121.118 14.3787 120.471 14.7585L119.535 13.0319ZM126.739 18.7277L124.741 18.7814C123.394 18.8172 122.435 19.0557 121.867 19.4971C121.607 19.677 121.394 19.9166 121.246 20.1958C121.099 20.475 121.02 20.7856 121.017 21.1015C121.007 21.4316 121.071 21.7597 121.205 22.0617C121.319 22.2995 121.491 22.5047 121.706 22.6581C121.927 22.8034 122.174 22.9046 122.433 22.9563C122.721 23.0193 123.015 23.0503 123.31 23.0488C123.976 23.0451 124.633 22.887 125.228 22.5869C125.823 22.2868 126.34 21.8529 126.739 21.3192V18.7277Z" fill="white"/>
    <path d="M122.746 25.2763C122.126 25.2812 121.509 25.1866 120.919 24.9959C120.375 24.8221 119.87 24.548 119.427 24.1878C119.002 23.8326 118.661 23.3862 118.431 22.8816C118.195 22.3436 118.079 21.7604 118.092 21.1729C118.064 20.4972 118.215 19.8261 118.529 19.2272C118.843 18.6283 119.309 18.1228 119.881 17.7614C121.005 17.0218 122.49 16.649 124.297 16.649H126.28V16.0288C126.28 15.2683 126.107 14.7584 125.767 14.5168C125.28 14.2131 124.71 14.0673 124.136 14.0993C123.632 14.1105 123.132 14.1826 122.645 14.314C121.961 14.5096 121.304 14.7901 120.689 15.149L120.289 15.3727L118.927 12.823L119.335 12.6202C119.767 12.4055 120.179 12.2057 120.567 12.0238C120.953 11.8468 121.351 11.6993 121.759 11.5824C122.16 11.4678 122.569 11.3821 122.982 11.326C123.431 11.2665 123.883 11.2376 124.336 11.2395C125.025 11.2343 125.713 11.3165 126.382 11.484C127.002 11.6403 127.579 11.9349 128.069 12.3458C128.564 12.7775 128.945 13.3244 129.179 13.9383C129.455 14.6952 129.586 15.4976 129.563 16.3031V25.0109H126.781L126.566 23.991C126.134 24.3542 125.644 24.6434 125.117 24.8468C124.36 25.1328 123.556 25.2783 122.746 25.2763ZM124.285 17.5556C122.657 17.5556 121.336 17.8806 120.361 18.5218C119.917 18.8018 119.556 19.195 119.314 19.6609C119.072 20.1268 118.959 20.6487 118.986 21.1729C118.98 21.6287 119.072 22.0805 119.258 22.4969C119.432 22.8802 119.691 23.2187 120.015 23.487C120.368 23.7758 120.773 23.9953 121.208 24.1341C121.707 24.2951 122.228 24.3747 122.752 24.3697C123.454 24.3774 124.151 24.2592 124.81 24.0208C125.446 23.7662 126.016 23.3706 126.477 22.8637L126.608 22.7236H127.205L127.503 24.1252H128.666V16.324C128.687 15.6321 128.578 14.9424 128.347 14.2902C128.165 13.8117 127.869 13.3848 127.485 13.0466C127.097 12.7238 126.641 12.4924 126.152 12.3697C125.557 12.2224 124.946 12.1503 124.333 12.155C123.92 12.1532 123.508 12.1791 123.098 12.2325C122.728 12.2829 122.361 12.3596 122.001 12.4622C121.634 12.5684 121.275 12.701 120.927 12.8588C120.677 12.9721 120.415 13.0973 120.14 13.2286L120.632 14.153C121.194 13.852 121.788 13.6159 122.404 13.4492C122.963 13.2982 123.539 13.216 124.118 13.2047C124.878 13.171 125.629 13.3742 126.268 13.7862C126.865 14.2067 127.163 14.9612 127.163 16.0288V17.5556H124.285ZM123.316 23.5198C122.987 23.5206 122.659 23.4856 122.338 23.4154C122.018 23.3489 121.714 23.2203 121.443 23.0367C121.164 22.8361 120.941 22.567 120.796 22.2554C120.633 21.8932 120.553 21.4986 120.564 21.1013C120.566 20.7174 120.66 20.3396 120.838 19.9993C121.016 19.6591 121.273 19.3662 121.586 19.1451C122.237 18.6381 123.262 18.3727 124.724 18.3339L127.181 18.2683V21.4711L127.088 21.5904C126.65 22.182 126.08 22.6641 125.424 22.9988C124.768 23.3335 124.044 23.5118 123.307 23.5198H123.316ZM126.298 19.1868L124.759 19.2286C123.513 19.2614 122.636 19.4701 122.147 19.8488C121.942 19.9876 121.773 20.174 121.655 20.3921C121.537 20.6101 121.474 20.8535 121.47 21.1013C121.461 21.3633 121.509 21.6241 121.613 21.8647C121.692 22.0383 121.814 22.1884 121.968 22.3001C122.141 22.4172 122.336 22.4992 122.541 22.5417C123.232 22.6838 123.949 22.631 124.612 22.3893C125.275 22.1476 125.858 21.7265 126.295 21.1729L126.298 19.1868Z" fill="white"/>
    <path d="M134.976 24.5845H132.59V11.8987H134.454L134.806 13.6521C135.381 13.0629 136.051 12.5749 136.789 12.2088C137.536 11.8632 138.352 11.6919 139.174 11.7078C140.472 11.7078 141.485 12.0746 142.225 12.8022C142.965 13.5299 143.331 14.5438 143.331 15.838V24.5845H140.946V16.1899C140.985 15.5208 140.772 14.8612 140.349 14.341C139.952 13.8818 139.335 13.6521 138.5 13.6521C137.238 13.6521 136.059 14.2187 134.964 15.3519L134.976 24.5845Z" fill="white"/>
    <path d="M143.791 25.032H140.51V16.19C140.545 15.628 140.367 15.0735 140.012 14.6363C139.693 14.2755 139.198 14.0995 138.501 14.0995C137.403 14.0995 136.392 14.5707 135.411 15.5369V25.032H132.131V11.4514H134.815L135.083 12.7874C135.542 12.398 136.048 12.0683 136.589 11.8063C137.398 11.4323 138.281 11.2458 139.172 11.2606C140.582 11.2606 141.715 11.6721 142.535 12.4832C143.355 13.2944 143.776 14.4246 143.776 15.8381L143.791 25.032ZM141.405 24.1373H142.896V15.8381C142.896 14.6453 142.577 13.7685 141.924 13.1214C141.271 12.4743 140.37 12.1552 139.186 12.1552C138.43 12.1408 137.68 12.2967 136.992 12.6115C136.3 12.9561 135.671 13.4148 135.131 13.9683L134.534 14.5648L134.09 12.352H133.04V24.1373H134.531V15.1731L134.657 15.0419C135.85 13.8222 137.135 13.2049 138.515 13.2049C139.473 13.2049 140.206 13.4882 140.698 14.0459C141.197 14.6458 141.455 15.4104 141.42 16.19L141.405 24.1373Z" fill="white"/>
    <path d="M153.035 22.9921C153.545 23.0005 154.054 22.9372 154.547 22.8042C154.982 22.6767 155.406 22.5141 155.814 22.3182L156.327 24.1074C155.239 24.6193 154.046 24.8695 152.844 24.838C151.969 24.8438 151.099 24.7068 150.268 24.4325C149.488 24.1744 148.771 23.7559 148.162 23.2038C147.544 22.6336 147.06 21.9327 146.746 21.1521C146.386 20.2375 146.211 19.2602 146.233 18.2774C146.217 17.3431 146.382 16.4145 146.719 15.5428C147.013 14.7664 147.472 14.0627 148.063 13.48C148.654 12.8974 149.365 12.4495 150.145 12.1671C151.005 11.8525 151.914 11.6969 152.829 11.7078C153.376 11.7075 153.923 11.7484 154.463 11.8301C155.086 11.9436 155.691 12.1391 156.262 12.4116L155.722 14.2188C154.905 13.7527 153.979 13.511 153.038 13.518C152.451 13.4927 151.865 13.5888 151.317 13.8002C150.77 14.0116 150.271 14.3338 149.853 14.7466C149.042 15.5637 148.637 16.7108 148.637 18.1879C148.612 18.9697 148.741 19.7487 149.015 20.4812C149.232 21.0419 149.573 21.5458 150.014 21.9543C150.421 22.3165 150.899 22.5879 151.419 22.7506C151.942 22.9131 152.487 22.9946 153.035 22.9921Z" fill="white"/>
    <path d="M152.844 25.2763C151.92 25.2813 151.002 25.1363 150.124 24.8469C149.286 24.5687 148.516 24.1187 147.861 23.5258C147.195 22.9109 146.672 22.1564 146.331 21.3161C145.95 20.3461 145.765 19.3103 145.786 18.2684C145.772 17.2801 145.947 16.2984 146.301 15.3757C146.621 14.541 147.117 13.785 147.755 13.1593C148.393 12.5335 149.158 12.0526 149.999 11.7495C150.905 11.4163 151.864 11.2506 152.829 11.2604C153.399 11.2606 153.968 11.3034 154.532 11.3887C155.201 11.5069 155.852 11.7135 156.467 12.003L156.825 12.164L156.014 14.8837L155.513 14.6123C154.766 14.1875 153.921 13.9654 153.062 13.9682C152.534 13.9426 152.007 14.0266 151.513 14.215C151.019 14.4033 150.57 14.692 150.193 15.0626C149.474 15.8052 149.105 16.8399 149.105 18.1908C149.082 18.9143 149.199 19.6353 149.451 20.3141C149.645 20.8129 149.951 21.2607 150.345 21.6232C150.703 21.9428 151.125 22.1818 151.583 22.324C152.056 22.4721 152.548 22.5475 153.044 22.5477C153.512 22.5559 153.978 22.4987 154.431 22.3777C154.839 22.2557 155.238 22.1021 155.623 21.9185L156.1 21.6888L156.858 24.334L156.524 24.498C155.375 25.0401 154.115 25.3066 152.844 25.2763ZM152.817 12.1551C151.958 12.1451 151.104 12.2917 150.297 12.5875C149.58 12.8466 148.925 13.2529 148.374 13.7803C147.83 14.3248 147.405 14.9769 147.128 15.6948C146.815 16.511 146.661 17.3795 146.674 18.2535C146.654 19.1766 146.816 20.0947 147.151 20.9552C147.442 21.6748 147.888 22.3213 148.457 22.8489C149.02 23.359 149.684 23.7459 150.405 23.9851C152.16 24.5374 154.05 24.4859 155.772 23.8389L155.51 22.9205C155.227 23.0338 154.94 23.1352 154.654 23.2187C153.549 23.5114 152.385 23.4918 151.29 23.162C150.71 22.9794 150.175 22.6744 149.722 22.2674C149.231 21.8135 148.849 21.2536 148.607 20.6302C148.321 19.8497 148.186 19.0218 148.21 18.1908C148.21 16.6014 148.663 15.337 149.555 14.4334C150.015 13.9794 150.563 13.6246 151.166 13.3907C151.769 13.1568 152.413 13.0489 153.059 13.0735C153.881 13.0718 154.695 13.2457 155.444 13.5835L155.716 12.668C155.282 12.4877 154.83 12.3557 154.368 12.2743C153.855 12.1957 153.336 12.1558 152.817 12.1551Z" fill="white"/>
    <path d="M169.043 18.5129H159.944V18.6202C159.944 20.0218 160.327 21.1014 161.092 21.8588C161.858 22.6163 162.897 22.994 164.209 22.992C164.82 22.9987 165.43 22.9448 166.031 22.831C166.626 22.7029 167.209 22.5223 167.772 22.2912L168.258 24.0447C167.665 24.3018 167.045 24.4918 166.409 24.6113C165.658 24.7595 164.894 24.8324 164.128 24.829C163.255 24.8357 162.386 24.709 161.552 24.4532C160.771 24.2136 160.049 23.8134 159.431 23.2783C158.8 22.7198 158.306 22.0227 157.988 21.2415C157.613 20.2931 157.434 19.2788 157.46 18.2594C157.45 17.3454 157.601 16.4368 157.908 15.5755C158.178 14.8069 158.605 14.103 159.163 13.5089C159.713 12.934 160.38 12.4836 161.119 12.1878C161.938 11.8613 162.814 11.7001 163.696 11.7137C164.449 11.7038 165.196 11.8416 165.896 12.1192C166.532 12.3754 167.107 12.7613 167.584 13.2524C168.063 13.7562 168.43 14.3545 168.664 15.0089C168.922 15.7362 169.051 16.5034 169.043 17.2753V18.5129ZM166.585 16.8101C166.585 16.3692 166.523 15.9306 166.4 15.5069C166.293 15.1199 166.109 14.758 165.861 14.4423C165.613 14.1339 165.297 13.8861 164.939 13.7177C164.308 13.4591 163.616 13.3854 162.944 13.5053C162.273 13.6251 161.649 13.9336 161.146 14.3946C160.501 15.0731 160.098 15.945 159.998 16.8757L166.585 16.8101Z" fill="white"/>
    <path d="M164.128 25.2764C163.209 25.2823 162.295 25.1475 161.417 24.8768C160.579 24.6173 159.803 24.1868 159.139 23.6123C158.455 23.0092 157.921 22.256 157.577 21.4115C157.181 20.412 156.989 19.3432 157.013 18.2684C157.003 17.2967 157.163 16.3307 157.487 15.4145C157.78 14.5898 158.24 13.8345 158.838 13.1958C159.433 12.5756 160.152 12.0887 160.949 11.7674C161.823 11.4197 162.756 11.2474 163.696 11.2605C164.512 11.2491 165.322 11.398 166.081 11.6988C166.774 11.9788 167.401 12.4003 167.921 12.9364C168.447 13.4843 168.853 14.1352 169.114 14.8479C169.391 15.6249 169.528 16.4447 169.52 17.2694V18.9603H160.401C160.457 20.0696 160.794 20.9374 161.406 21.5398C162.091 22.2167 163.007 22.5447 164.209 22.5447C164.79 22.5513 165.37 22.5004 165.941 22.3927C166.506 22.2695 167.059 22.0969 167.593 21.8768L168.058 21.6889L168.786 24.2952L168.434 24.4533C167.811 24.7235 167.16 24.9235 166.493 25.0497C165.714 25.2031 164.922 25.2791 164.128 25.2764ZM163.696 12.1551C162.873 12.1436 162.055 12.2925 161.289 12.5935C160.609 12.8693 159.995 13.2848 159.485 13.8131C158.973 14.3637 158.578 15.0132 158.325 15.7217C158.038 16.5395 157.896 17.4016 157.908 18.2684C157.884 19.2233 158.052 20.1732 158.4 21.0626C158.692 21.7809 159.145 22.4226 159.724 22.9384C160.296 23.4318 160.964 23.8014 161.686 24.0239C162.477 24.2662 163.301 24.3869 164.128 24.3817C164.864 24.3848 165.598 24.3149 166.32 24.173C166.797 24.0804 167.265 23.9498 167.721 23.7823L167.474 22.8877C167.032 23.0489 166.58 23.1784 166.12 23.2754C165.49 23.395 164.85 23.4519 164.209 23.4453C162.78 23.4453 161.626 23.0219 160.776 22.1839C159.926 21.3459 159.497 20.1471 159.497 18.6263V18.0656H168.595V17.2694C168.603 16.5494 168.484 15.8337 168.243 15.1551C168.03 14.5605 167.696 14.0164 167.262 13.5567C166.828 13.1095 166.305 12.758 165.726 12.5249C165.08 12.2697 164.39 12.144 163.696 12.1551ZM159.485 17.3171L159.557 16.8042C159.67 15.7774 160.116 14.8158 160.827 14.0666C161.185 13.7094 161.612 13.4295 162.082 13.2443C162.553 13.0591 163.056 12.9726 163.562 12.9901C164.1 12.972 164.636 13.0739 165.13 13.2883C165.554 13.4857 165.927 13.7774 166.222 14.1412C166.505 14.5049 166.714 14.9201 166.839 15.3638C166.97 15.8295 167.036 16.3114 167.033 16.7952V17.2396L159.485 17.3171ZM163.562 13.8847C163.176 13.8681 162.792 13.9316 162.433 14.0712C162.073 14.2108 161.747 14.4235 161.474 14.6958C161.015 15.1732 160.695 15.7673 160.55 16.4135L166.126 16.3658C166.103 16.1156 166.057 15.8681 165.989 15.6263C165.895 15.2957 165.739 14.9861 165.53 14.7137C165.32 14.458 165.055 14.2539 164.754 14.1173C164.379 13.9512 163.972 13.8717 163.562 13.8847Z" fill="white"/>
    <path d="M52.946 6.85596H50.5693V9.2327H52.946V6.85596Z" fill="white"/>
    <path d="M53.3814 9.67998H50.1011V6.39966H53.3814V9.67998ZM50.9957 8.78534H52.4868V7.29429H50.9957V8.78534Z" fill="white"/>
</svg>