<svg width="65" height="64" viewBox="0 0 65 64" fill="none" xmlns="http://www.w3.org/2000/svg">
    <path d="M32.5 0C14.8554 0 0.5 14.3554 0.5 32C0.5 49.6446 14.8554 64 32.5 64C50.1446 64 64.5 49.6446 64.5 32C64.5 14.3554 50.1446 0 32.5 0ZM49.1538 21.2754L28.4769 45.8908C28.2501 46.1609 27.9679 46.3792 27.6494 46.5307C27.3308 46.6823 26.9835 46.7636 26.6308 46.7692H26.5892C26.2442 46.7691 25.9031 46.6965 25.5879 46.556C25.2728 46.4155 24.9907 46.2104 24.76 45.9538L15.8985 36.1077C15.6734 35.869 15.4983 35.5877 15.3836 35.2804C15.2688 34.9731 15.2166 34.6459 15.23 34.3181C15.2435 33.9903 15.3223 33.6685 15.4619 33.3717C15.6015 33.0748 15.799 32.8088 16.0429 32.5893C16.2867 32.3699 16.572 32.2014 16.8819 32.0938C17.1918 31.9862 17.5201 31.9416 17.8475 31.9626C18.1749 31.9837 18.4947 32.07 18.7883 32.2164C19.0819 32.3629 19.3432 32.5665 19.5569 32.8154L26.5246 40.5569L45.3846 18.1092C45.8077 17.6201 46.4062 17.3171 47.0508 17.2658C47.6955 17.2144 48.3344 17.4188 48.8296 17.8347C49.3248 18.2507 49.6364 18.8448 49.697 19.4886C49.7577 20.1324 49.5626 20.7743 49.1538 21.2754Z" fill="white"/>
</svg>